<svg width="86" height="38" viewBox="0 0 86 38" fill="none" xmlns="http://www.w3.org/2000/svg">
<path d="M4.94 29.976C3.952 29.6813 3.28467 29.3953 2.938 29.118C2.59133 28.858 2.418 28.494 2.418 28.026C2.418 27.506 2.53933 26.778 2.782 25.842C3.02467 24.8887 3.33667 23.8313 3.718 22.67C4.11667 21.5087 4.56733 20.2953 5.07 19.03C5.57267 17.7647 6.084 16.5513 6.604 15.39C7.124 14.2287 7.62667 13.1713 8.112 12.218C8.61467 11.2473 9.05667 10.4933 9.438 9.956L9.256 8.864C9.49867 8.864 9.83667 8.92467 10.27 9.046C10.7033 9.16733 11.1367 9.31467 11.57 9.488C12.0207 9.66133 12.4107 9.84333 12.74 10.034C13.0867 10.2073 13.2773 10.3547 13.312 10.476C13.2253 10.892 13.156 11.5247 13.104 12.374C13.052 13.206 13.026 14.0987 13.026 15.052C13.026 16.9413 13.0953 18.796 13.234 20.616C13.39 22.4187 13.7367 24.256 14.274 26.128C14.5513 24.7413 14.846 23.3633 15.158 21.994C15.4873 20.6073 15.8253 19.29 16.172 18.042C16.5187 16.7767 16.8653 15.6067 17.212 14.532C17.5587 13.4573 17.888 12.5213 18.2 11.724C18.5293 10.9093 18.8327 10.2767 19.11 9.826C19.3873 9.358 19.6387 9.10667 19.864 9.072C20.0547 9.10667 20.2627 9.18467 20.488 9.306C20.7133 9.41 20.93 9.54 21.138 9.696C21.346 9.852 21.5367 10.0253 21.71 10.216C21.8833 10.4067 22.022 10.5973 22.126 10.788C21.5713 11.0133 21.0167 11.542 20.462 12.374C19.9247 13.206 19.4047 14.22 18.902 15.416C18.4167 16.5947 17.9573 17.8773 17.524 19.264C17.108 20.6507 16.7353 22.02 16.406 23.372C16.094 24.7067 15.8427 25.946 15.652 27.09C15.4787 28.234 15.3833 29.1527 15.366 29.846C15.366 29.8807 15.3747 29.9067 15.392 29.924C15.34 29.9413 15.2793 29.95 15.21 29.95C15.158 29.95 15.106 29.95 15.054 29.95C14.2567 29.95 13.546 29.846 12.922 29.638C12.3153 29.4473 11.9167 29.17 11.726 28.806C11.362 27.35 11.0587 25.946 10.816 24.594C10.5733 23.242 10.3653 21.89 10.192 20.538C10.036 19.186 9.906 17.8253 9.802 16.456C9.71533 15.0693 9.646 13.622 9.594 12.114C9.26467 12.634 8.918 13.3187 8.554 14.168C8.19 15 7.83467 15.9187 7.488 16.924C7.14133 17.9293 6.80333 18.9867 6.474 20.096C6.162 21.2053 5.88467 22.2887 5.642 23.346C5.39933 24.4033 5.20867 25.4087 5.07 26.362C4.93133 27.298 4.862 28.1127 4.862 28.806C4.862 29.17 4.862 29.43 4.862 29.586C4.87933 29.742 4.90533 29.872 4.94 29.976ZM22.6525 28.91C21.6645 28.806 20.8758 28.3727 20.2865 27.61C19.6972 26.8473 19.4025 25.8767 19.4025 24.698C19.4025 24.0047 19.5065 23.2853 19.7145 22.54C19.9225 21.7947 20.2172 21.0753 20.5985 20.382C20.9798 19.6713 21.4305 19.004 21.9505 18.38C22.4705 17.756 23.0338 17.2187 23.6405 16.768C24.5938 16.0573 25.4865 15.702 26.3185 15.702C26.8732 15.9967 27.4192 16.612 27.9565 17.548C28.0432 17.548 28.1212 17.548 28.1905 17.548C28.2598 17.5307 28.3378 17.522 28.4245 17.522C29.3432 17.522 29.8025 18.3367 29.8025 19.966C29.8025 21.058 29.6205 22.098 29.2565 23.086C28.9098 24.0567 28.4158 24.9407 27.7745 25.738C27.1505 26.5353 26.3965 27.2113 25.5125 27.766C24.6458 28.3033 23.6925 28.6847 22.6525 28.91ZM23.9785 20.72C23.6838 21.1187 23.4065 21.552 23.1465 22.02C22.8865 22.488 22.6612 22.9647 22.4705 23.45C22.2798 23.918 22.1325 24.3773 22.0285 24.828C21.9245 25.2613 21.8725 25.6513 21.8725 25.998C21.8725 26.414 21.9418 26.8127 22.0805 27.194C22.2192 27.5753 22.3752 27.792 22.5485 27.844C23.3285 27.6707 24.0392 27.35 24.6805 26.882C25.3392 26.3967 25.9025 25.7987 26.3705 25.088C26.8558 24.3773 27.2285 23.5713 27.4885 22.67C27.7658 21.7687 27.9045 20.8067 27.9045 19.784C27.9045 19.3333 27.8785 18.978 27.8265 18.718C27.7745 18.458 27.6878 18.2327 27.5665 18.042C26.8038 18.2673 26.1192 18.6313 25.5125 19.134C24.9232 19.6367 24.4118 20.1653 23.9785 20.72ZM32.3412 18.042C32.2545 17.938 32.1765 17.7213 32.1072 17.392C32.0378 17.0453 32.0032 16.7507 32.0032 16.508C32.4538 16.5427 32.8872 16.5773 33.3032 16.612C33.7192 16.6293 34.1005 16.6467 34.4472 16.664C34.7072 16.144 34.9845 15.6327 35.2792 15.13C35.5912 14.61 35.8858 14.142 36.1632 13.726C36.4578 13.2927 36.7265 12.9287 36.9692 12.634C37.2292 12.3393 37.4285 12.1487 37.5672 12.062C37.7405 12.062 37.9572 12.0967 38.2172 12.166C38.4945 12.218 38.7718 12.296 39.0492 12.4C39.3265 12.4867 39.5778 12.582 39.8032 12.686C40.0285 12.79 40.1845 12.894 40.2712 12.998C39.7512 13.6567 39.3005 14.272 38.9192 14.844C38.5552 15.3987 38.1565 16.04 37.7232 16.768C38.0698 16.768 38.4165 16.7593 38.7632 16.742C39.1272 16.7247 39.4912 16.6987 39.8552 16.664C39.9418 16.7507 40.0112 16.8633 40.0632 17.002C40.1152 17.1233 40.1412 17.2533 40.1412 17.392C39.2918 17.704 38.2605 17.8773 37.0472 17.912C36.6138 18.744 36.2238 19.576 35.8772 20.408C35.5478 21.2227 35.2618 22.0113 35.0192 22.774C34.7938 23.5367 34.6118 24.256 34.4732 24.932C34.3518 25.608 34.2912 26.2147 34.2912 26.752C34.2912 27.5147 34.5772 27.9393 35.1492 28.026C35.6692 27.9567 36.1632 27.8267 36.6312 27.636C37.0992 27.4453 37.5152 27.2027 37.8792 26.908C37.9832 27.064 38.0438 27.194 38.0612 27.298C37.9572 27.454 37.7752 27.636 37.5152 27.844C37.2725 28.052 37.0038 28.2513 36.7092 28.442C36.4145 28.65 36.1285 28.8233 35.8512 28.962C35.5738 29.1007 35.3658 29.1787 35.2272 29.196C34.7938 29.1787 34.3605 29.0833 33.9272 28.91C33.4938 28.7367 33.0952 28.52 32.7312 28.26C32.3845 28 32.0985 27.714 31.8732 27.402C31.6478 27.0727 31.5352 26.752 31.5352 26.44C31.5352 26.024 31.5872 25.504 31.6912 24.88C31.8125 24.2387 31.9772 23.5453 32.1852 22.8C32.3932 22.0547 32.6358 21.2747 32.9132 20.46C33.1905 19.6453 33.4938 18.8393 33.8232 18.042H32.3412ZM49.2558 17.236C49.1864 18.3107 48.9958 19.238 48.6838 20.018C48.3718 20.7807 47.9211 21.4567 47.3318 22.046C46.7598 22.618 46.0578 23.138 45.2258 23.606C44.3938 24.074 43.4231 24.5247 42.3138 24.958C42.3138 25.062 42.3051 25.1747 42.2878 25.296C42.2878 25.4 42.2878 25.5127 42.2878 25.634C42.2878 25.8593 42.3051 26.0933 42.3398 26.336C42.3744 26.5787 42.4351 26.804 42.5218 27.012C42.6084 27.22 42.7298 27.3933 42.8858 27.532C43.0418 27.6533 43.2411 27.714 43.4838 27.714C43.9518 27.714 44.4111 27.61 44.8618 27.402C45.3124 27.194 45.7371 26.9427 46.1358 26.648C46.5518 26.336 46.9331 26.0067 47.2798 25.66C47.6438 25.296 47.9644 24.9667 48.2418 24.672C48.4151 24.828 48.5624 24.9753 48.6838 25.114C47.9038 26.154 47.0458 27.0207 46.1098 27.714C45.1911 28.39 44.3158 28.8233 43.4838 29.014C42.2878 28.8753 41.3518 28.442 40.6758 27.714C40.0171 26.9687 39.6878 26.076 39.6878 25.036C39.6878 24.3253 39.7831 23.606 39.9738 22.878C40.1818 22.1327 40.4591 21.422 40.8058 20.746C41.1698 20.0527 41.5858 19.4027 42.0538 18.796C42.5391 18.1893 43.0504 17.6607 43.5878 17.21C44.1424 16.7593 44.7058 16.404 45.2778 16.144C45.8671 15.884 46.4478 15.754 47.0198 15.754C47.8171 15.858 48.5624 16.352 49.2558 17.236ZM47.4618 18.094C46.9938 18.1633 46.5084 18.354 46.0058 18.666C45.5031 18.978 45.0264 19.394 44.5758 19.914C44.1424 20.434 43.7438 21.0407 43.3798 21.734C43.0158 22.4273 42.7298 23.1727 42.5218 23.97C43.9084 23.2767 45.0611 22.4273 45.9798 21.422C46.8984 20.3993 47.3924 19.29 47.4618 18.094ZM56.1275 15.858C56.4742 15.858 56.8728 15.962 57.3235 16.17C57.7742 16.378 58.1728 16.6467 58.5195 16.976C58.4328 16.2827 58.3202 15.6327 58.1815 15.026C58.0602 14.402 57.8695 13.7607 57.6095 13.102C57.3668 12.4433 57.0375 11.724 56.6215 10.944C56.2055 10.164 55.6855 9.27133 55.0615 8.266C55.1135 8.11 55.2262 7.928 55.3995 7.72C55.5902 7.512 55.7982 7.32133 56.0235 7.148C56.2662 6.95733 56.5088 6.79267 56.7515 6.654C57.0115 6.51533 57.2542 6.42867 57.4795 6.394C57.9648 6.93133 58.4242 7.60733 58.8575 8.422C59.2908 9.21933 59.6722 10.086 60.0015 11.022C60.3308 11.9407 60.5822 12.894 60.7555 13.882C60.9462 14.87 61.0415 15.8147 61.0415 16.716C61.0415 17.6173 60.9375 18.5447 60.7295 19.498C60.5388 20.4513 60.2615 21.3873 59.8975 22.306C59.5508 23.2073 59.1435 24.0653 58.6755 24.88C58.2075 25.6947 57.6962 26.4227 57.1415 27.064C56.6042 27.7053 56.0408 28.2253 55.4515 28.624C54.8622 29.04 54.2728 29.3 53.6835 29.404C52.4875 29.2653 51.5688 28.8753 50.9275 28.234C50.3035 27.61 49.9915 26.7433 49.9915 25.634C49.9915 25.0447 50.0782 24.4033 50.2515 23.71C50.4422 23.0167 50.6848 22.332 50.9795 21.656C51.2915 20.9627 51.6468 20.2953 52.0455 19.654C52.4615 18.9953 52.8948 18.406 53.3455 17.886C53.8135 17.366 54.2815 16.924 54.7495 16.56C55.2175 16.196 55.6768 15.962 56.1275 15.858ZM53.4755 28.364C54.0822 28.156 54.6888 27.6967 55.2955 26.986C55.9022 26.2753 56.4482 25.4433 56.9335 24.49C57.4188 23.5193 57.8088 22.488 58.1035 21.396C58.4155 20.2867 58.5715 19.2207 58.5715 18.198C58.5715 17.9033 58.5715 17.7213 58.5715 17.652C58.5715 17.5827 58.5628 17.5133 58.5455 17.444C58.1295 17.6173 57.6875 17.912 57.2195 18.328C56.7515 18.744 56.2835 19.2293 55.8155 19.784C55.3475 20.3213 54.9055 20.9107 54.4895 21.552C54.0735 22.1933 53.7008 22.8347 53.3715 23.476C53.0422 24.1173 52.7822 24.7327 52.5915 25.322C52.4008 25.9113 52.3055 26.4313 52.3055 26.882C52.3055 27.7487 52.6955 28.2427 53.4755 28.364Z" fill="#D9614C"/>
<g clip-path="url(#clip0_302_7)">
<path d="M81.625 12.875C81.7892 12.7109 81.984 12.5806 82.1985 12.4918C82.413 12.403 82.6429 12.3572 82.875 12.3572C83.1071 12.3572 83.337 12.403 83.5515 12.4918C83.766 12.5806 83.9608 12.7109 84.125 12.875C84.2892 13.0392 84.4194 13.234 84.5082 13.4485C84.597 13.663 84.6428 13.8929 84.6428 14.125C84.6428 14.3572 84.597 14.587 84.5082 14.8015C84.4194 15.016 84.2892 15.2109 84.125 15.375L75.6875 23.8125L72.25 24.75L73.1875 21.3125L81.625 12.875Z" stroke="#D9614C" stroke-width="2" stroke-linecap="round" stroke-linejoin="round"/>
</g>
<defs>
<clipPath id="clip0_302_7">
<rect width="15" height="15" fill="white" transform="translate(71 11)"/>
</clipPath>
</defs>
</svg>
