<svg width="20" height="20" viewBox="0 0 20 20" fill="none" xmlns="http://www.w3.org/2000/svg">
<g id="Frame">
<path id="Vector" d="M3.33341 16.6667H16.6667C17.1088 16.6667 17.5327 16.4911 17.8453 16.1785C18.1578 15.866 18.3334 15.442 18.3334 15V6.66667C18.3334 6.22464 18.1578 5.80072 17.8453 5.48816C17.5327 5.17559 17.1088 5 16.6667 5H10.0584C9.7839 4.99858 9.51399 4.92937 9.27266 4.79853C9.03133 4.66769 8.82606 4.47927 8.67508 4.25L7.99175 3.25C7.84077 3.02073 7.63549 2.83231 7.39417 2.70147C7.15284 2.57063 6.88293 2.50142 6.60841 2.5H3.33341C2.89139 2.5 2.46746 2.67559 2.1549 2.98816C1.84234 3.30072 1.66675 3.72464 1.66675 4.16667V15C1.66675 15.9167 2.41675 16.6667 3.33341 16.6667Z" stroke="black" stroke-opacity="0.6" stroke-width="2" stroke-linecap="round" stroke-linejoin="round"/>
</g>
</svg>
