<svg width="20" height="20" viewBox="0 0 20 20" fill="none" xmlns="http://www.w3.org/2000/svg">
<g id="Frame">
<path id="Vector" d="M5.00008 11.6667L6.20841 9.25C6.34755 8.97388 6.56076 8.74191 6.82419 8.58002C7.08762 8.41814 7.39089 8.33272 7.70008 8.33333H16.6667C16.9214 8.33289 17.1727 8.39078 17.4014 8.50257C17.6302 8.61436 17.8303 8.77707 17.9864 8.97822C18.1425 9.17937 18.2504 9.41361 18.3019 9.66296C18.3534 9.91231 18.3471 10.1701 18.2834 10.4167L16.9917 15.4167C16.8993 15.7749 16.6902 16.0922 16.3975 16.3185C16.1048 16.5448 15.7451 16.6673 15.3751 16.6667H3.33341C2.89139 16.6667 2.46746 16.4911 2.1549 16.1785C1.84234 15.866 1.66675 15.442 1.66675 15V4.16667C1.66675 3.25 2.41675 2.5 3.33341 2.5H6.60841C6.88293 2.50142 7.15284 2.57063 7.39417 2.70147C7.6355 2.83231 7.84077 3.02073 7.99175 3.25L8.67508 4.25C8.82606 4.47927 9.03133 4.66769 9.27266 4.79853C9.51399 4.92937 9.7839 4.99858 10.0584 5H15.0001C15.4421 5 15.866 5.17559 16.1786 5.48816C16.4912 5.80072 16.6667 6.22464 16.6667 6.66667V8.33333" stroke="black" stroke-width="2" stroke-linecap="round" stroke-linejoin="round"/>
</g>
</svg>
